<?xml version="1.0" encoding="UTF-8"?>
<svg version="1.1" xmlns="http://www.w3.org/2000/svg" width="128" height="128">
<path d="M0 0 C42.24 0 84.48 0 128 0 C128 42.24 128 84.48 128 128 C85.76 128 43.52 128 0 128 C0 85.76 0 43.52 0 0 Z " fill="#FEFEFE" transform="translate(0,0)"/>
<path d="M0 0 C1.77111844 0.47811177 3.54188483 0.9575278 5.3125 1.4375 C6.29863281 1.70433594 7.28476563 1.97117188 8.30078125 2.24609375 C10.21517526 2.78079425 12.11433615 3.37144538 14 4 C14.09943082 9.26524445 14.17173199 14.52993343 14.21972656 19.79589844 C14.23974959 21.58440684 14.26697654 23.37285054 14.30175781 25.16113281 C14.35068955 27.74300162 14.37306165 30.3239995 14.390625 32.90625 C14.41127014 33.69616333 14.43191528 34.48607666 14.45318604 35.29992676 C14.45585697 42.02035655 12.47907995 47.17099028 8.03515625 52.2421875 C0.85984557 58.18135555 -3.73027228 59.32399048 -13 59 C-13.33 58.34 -13.66 57.68 -14 57 C-13.113125 56.46375 -12.22625 55.9275 -11.3125 55.375 C-5.38148172 51.37892386 -2.57531366 46.92295179 -1 40 C-0.69687072 36.85551003 -0.62942045 33.72403823 -0.5859375 30.56640625 C-0.56657135 29.68846909 -0.5472052 28.81053192 -0.5272522 27.9059906 C-0.46787262 25.1249233 -0.42123883 22.34381367 -0.375 19.5625 C-0.33678184 17.66730049 -0.29772792 15.77211764 -0.2578125 13.87695312 C-0.16220571 9.25143871 -0.07802245 4.62584308 0 0 Z " fill="#060606" transform="translate(72,34)"/>
<path d="M0 0 C2.4375 1 2.4375 1 4 3 C4.3316434 7.04604943 4.11469335 10.32458359 3.4375 14.3125 C2.77180827 17.08967375 2.77180827 17.08967375 4 20 C4.99 20.33 5.98 20.66 7 21 C7 21.33 7 21.66 7 22 C0.68801478 21.66779025 -3.42629758 20.50110397 -8 16 C-10.65066843 11.98124463 -11.73106829 8.80416305 -11 4 C-8.04627097 -0.48966812 -5.14336369 -0.64292046 0 0 Z " fill="#0B0B0B" transform="translate(53,64)"/>
</svg>
